<svg width="24" height="17" viewBox="0 0 24 17" fill="none" xmlns="http://www.w3.org/2000/svg">
<path d="M22.5 15.7477C22.5 16.1602 22.8375 16.4977 23.25 16.4977C23.6625 16.4977 24 16.1602 24 15.7477V11.2477C24 8.76328 21.9844 6.74766 19.5 6.74766H2.55937L8.02969 1.27734C8.32031 0.986719 8.32031 0.508594 8.02969 0.217969C7.73906 -0.0726563 7.26094 -0.0726563 6.97031 0.217969L0.220312 6.96797C0.0796875 7.10859 0 7.30078 0 7.49766C0 7.69453 0.0796875 7.88672 0.220312 8.02734L6.97031 14.7773C7.26094 15.068 7.73906 15.068 8.02969 14.7773C8.32031 14.4867 8.32031 14.0086 8.02969 13.718L2.55937 8.24766H19.5C21.1547 8.24766 22.5 9.59297 22.5 11.2477V15.7477Z" fill="#24282E"/>
</svg>
