<svg preserveAspectRatio="none" width="100%" height="100%" overflow="visible" style="display: block;" viewBox="0 0 110 14" fill="none" xmlns="http://www.w3.org/2000/svg">
<g id="Brooks_Sports_201x_logo 1" clip-path="url(#clip0_0_20)">
<path id="path3672" d="M9.79637 0.460705C9.8018 0.438915 9.81136 0.391302 10.0287 0.396641C12.1466 0.486527 17.3523 0.854243 23.0675 2.34826C30.5079 4.30124 33.3893 5.99818 31.0119 6.498C28.6549 6.98829 19.5014 6.74859 9.71078 12.9998C9.0261 13.4301 8.0018 13.994 5.4492 13.2177C4.47923 12.9249 3.29056 12.5095 1.88859 11.7808C-4.12273 8.64709 12.6777 6.50889 15.6487 6.09896C19.0558 5.63182 22.4887 5.34446 19.4118 3.65705C18.6687 3.25257 16.726 2.18891 10.0287 0.603651C10.0287 0.603651 9.77463 0.550646 9.79637 0.460705Z" fill="var(--fill-0, #AFBBCC)"/>
<path id="path3688" d="M39.3965 5.74355H41.7209C43.222 5.74355 44.2191 5.57332 44.3631 4.32308C44.3998 4.00848 44.3414 3.76878 44.177 3.58356C43.8646 3.23219 43.169 3.19951 41.7942 3.19951H40.1817L39.3965 5.74355ZM40.16 10.754C41.3432 10.754 42.7819 10.8548 42.9041 9.27499C42.9354 8.89229 42.8403 8.57905 42.6284 8.3448C42.3308 8.02475 41.7834 7.91852 41.0416 7.91852H38.7173L37.841 10.754H40.16ZM43.2003 0.827059C45.0152 0.827059 46.3479 1.23699 47.0475 2.00784C47.4673 2.47633 47.648 3.07285 47.5787 3.77968C47.4415 5.24782 46.7459 6.05679 45.0207 6.75409L44.8196 6.83308L45.0057 6.94476C45.7434 7.37648 46.1509 8.21678 46.0613 9.12654C45.6795 13.1169 42.3512 13.1169 38.8287 13.1169H35.984C35.3632 13.1115 34.6513 13.1591 34.4136 12.914C34.0631 12.5531 34.275 11.962 34.275 11.962L37.4321 1.73681C37.6182 1.15256 37.947 0.827059 39.2213 0.827059H43.2003ZM67.2931 3.27986C65.4619 3.31124 64.3642 4.31763 63.7325 6.53074L63.1755 8.55181C63.0953 8.86641 63.0641 9.14288 63.079 9.39211C63.1755 10.2174 63.8058 10.6369 64.9524 10.6641C66.7891 10.6314 67.8813 9.62636 68.513 7.41326L69.0754 5.39218C69.1502 5.07758 69.1813 4.79567 69.1719 4.55188C69.0754 3.72657 68.4437 3.30165 67.2931 3.27986ZM64.0504 13.2872C62.4161 13.2872 60.9884 12.6852 60.2303 11.6856C59.6462 10.9093 59.4981 9.91917 59.7997 8.82828L60.4314 6.5893C61.673 2.21076 63.6578 0.65682 68.0145 0.65682H68.1951C69.8348 0.65682 71.2626 1.25878 72.0206 2.25843C72.6048 3.03472 72.7529 4.02482 72.4513 5.11571L71.8196 7.35469C70.5779 11.7332 69.2453 13.2872 64.2311 13.2872H64.0504ZM106.912 3.22674L104.274 3.2213C103.299 3.2213 102.375 3.38064 102.263 4.53009C102.216 5.00404 102.581 5.24237 103.313 5.54063L105.484 6.32237C106.715 6.75954 107.363 7.76463 107.215 9.00941C106.812 12.4196 104.338 13.1169 100.746 13.1169H96.6868C96.5169 13.1169 96.3838 12.9671 96.4055 12.7914C96.6487 10.6696 98.8508 10.7227 98.8508 10.7227H101.52C102.959 10.7227 103.739 10.1698 103.845 9.07342C103.898 8.54092 103.574 8.14188 102.8 7.7905L100.645 7.01422C99.4622 6.53074 98.84 5.6632 98.9514 4.63087C99.3018 1.4549 101.573 0.816164 105.128 0.816164H109.14C109.306 0.816164 109.427 0.965974 109.395 1.13076C109.268 1.78448 108.78 3.22674 106.912 3.22674ZM87.1665 13.1169C87.3417 13.1169 87.5319 12.978 87.5794 12.8132L89.0982 7.90354C89.2572 7.9079 89.4052 7.99888 89.48 8.14188L91.6345 12.3393C91.8736 12.8132 92.3613 13.1115 92.8871 13.1115H95.1313C95.2794 13.1115 95.3812 12.9521 95.312 12.8187L92.5896 7.48816C92.5202 7.36014 92.5529 7.2008 92.6588 7.10546L99.1904 1.0722C99.2869 0.981009 99.223 0.821611 99.0899 0.821611H96.4476C96.0075 0.821611 95.5768 0.997298 95.2644 1.3119L90.0953 6.15758C89.9567 6.29104 89.772 6.3605 89.5804 6.3605L91.1984 1.10353C91.2419 0.960526 91.1359 0.821611 90.9865 0.821611H88.3972C88.2219 0.821611 88.0521 0.938736 88.0046 1.10353L84.3747 12.8446C84.3381 12.9835 84.4332 13.1169 84.5758 13.1169H87.1665ZM80.1988 3.27986C78.3675 3.31124 77.2739 4.31763 76.6436 6.53074L76.0812 8.55181C76.0064 8.86641 75.9739 9.14288 75.9847 9.39211C76.0812 10.2174 76.7115 10.6369 77.858 10.6641C79.6947 10.6314 80.7924 9.62636 81.4241 7.41326L81.981 5.39218C82.0558 5.07758 82.087 4.79567 82.0776 4.55188C81.981 3.72657 81.3494 3.30165 80.2042 3.27986H80.1988ZM76.9615 13.2872C75.3218 13.2872 73.894 12.6852 73.136 11.6856C72.5518 10.9093 72.4037 9.91917 72.7053 8.82828L73.337 6.5893C74.5787 2.21076 76.5634 0.65682 80.9255 0.65682H81.1062C82.7405 0.65682 84.1683 1.25878 84.9263 2.25843C85.5105 3.03472 85.6585 4.02482 85.3569 5.11571L84.7253 7.35469C83.4836 11.7332 82.1509 13.2872 77.1422 13.2872H76.9615ZM52.5616 3.18453L51.5115 6.57296L53.5112 6.57841C55.0504 6.57841 56.3776 6.57841 56.5678 4.58321C56.6059 4.21141 56.5258 3.92404 56.3301 3.70478C56.0054 3.34387 55.3642 3.18453 54.238 3.18453H52.5616ZM49.808 1.73137C49.9927 1.14711 50.3228 0.821611 51.5957 0.821611H55.0083C57.1357 0.821611 58.5268 1.20976 59.259 2.01873C59.7358 2.55124 59.9219 3.24854 59.8377 4.15284C59.6244 6.33871 58.4996 7.59439 56.0638 8.35025L55.9579 8.38697L57.6451 12.8241C57.698 12.9616 57.5921 13.1169 57.4441 13.1169H55.3479C54.7692 13.1169 54.2761 12.7764 54.1171 12.2711L52.8483 8.92901H50.7793L49.5797 12.8132C49.5321 12.9725 49.3407 13.1169 49.1654 13.1169H46.5707C46.4321 13.1169 46.3316 12.978 46.3737 12.8445L49.808 1.73137Z" fill="var(--fill-0, #AFBBCC)"/>
<path id="path3143" opacity="0" fill-rule="evenodd" clip-rule="evenodd" d="M6.33423 13.3924C4.50944 13.0084 1.61693 11.7489 0.987323 11.0641C0.790208 10.8497 0.636714 10.5979 0.636892 10.4893C0.639279 9.03432 5.44534 7.5704 14.2593 6.33993C19.1074 5.66311 19.8558 5.52068 20.3826 5.17467C20.8514 4.8667 20.6847 4.43474 19.8934 3.90736C18.487 2.97005 15.7404 1.98923 11.6322 0.957255C9.60728 0.448609 9.64312 0.378392 11.8403 0.54954C16.6613 0.925077 21.2633 1.79017 25.8866 3.19001C28.6482 4.02618 30.9059 4.98599 31.5147 5.58265C31.8243 5.88618 31.8479 6.00245 31.6377 6.19048C31.4043 6.39936 30.8943 6.50139 29.18 6.68221C26.323 6.98355 25.0101 7.17534 23.044 7.57857C18.5091 8.50861 14.2421 10.1861 10.2276 12.6169C8.58454 13.6119 7.96418 13.7354 6.33423 13.3924Z" fill="var(--fill-0, #AFBBCC)" stroke="var(--stroke-0, #AFBBCC)" stroke-width="0.118519"/>
<path id="path3182" opacity="0" fill-rule="evenodd" clip-rule="evenodd" d="M34.614 12.9797C34.3995 12.8884 34.2477 12.6405 34.2477 12.3814C34.2477 12.1573 37.4432 1.79366 37.615 1.46062C37.6901 1.31498 37.8912 1.15169 38.1209 1.04982C38.4841 0.888765 38.6518 0.882411 41.6585 0.915779C44.1484 0.943411 44.9045 0.977896 45.2396 1.07911C46.6208 1.49624 47.3623 2.17064 47.5264 3.15895C47.5982 3.59186 47.4491 4.45709 47.2174 4.95125C46.9512 5.51904 46.3493 6.0555 45.5317 6.45365L44.8057 6.80722L45.2918 7.27522C45.8939 7.85476 46.0959 8.41911 46.0021 9.25926C45.8273 10.8255 45.127 11.8583 43.8339 12.4573C42.7588 12.9553 42.3734 12.9959 38.4066 13.0288C36.3052 13.0462 34.722 13.0257 34.614 12.9797ZM42.1836 10.5437C42.6622 10.2932 42.9019 9.8392 42.9037 9.17995C42.9048 8.77967 42.8642 8.60749 42.7279 8.43371C42.36 7.96488 42.1571 7.91837 40.3376 7.88562C39.4156 7.86903 38.6613 7.87353 38.6613 7.89561C38.6613 7.91769 38.4703 8.55749 38.2369 9.31738C38.0035 10.0773 37.8125 10.7161 37.8125 10.737C37.8125 10.7579 38.7196 10.763 39.8283 10.7482C41.6778 10.7236 41.8722 10.7067 42.1836 10.5437ZM43.6031 5.51538C44.2318 5.22421 44.5597 4.47201 44.3438 3.81616C44.1718 3.29393 43.9459 3.23699 41.924 3.20627L40.1365 3.17912L39.8539 4.09972C39.6984 4.60605 39.5203 5.18564 39.4581 5.38769L39.345 5.75505L41.2736 5.72805C43.0443 5.70326 43.235 5.68584 43.6031 5.51538Z" fill="var(--fill-0, #AFBBCC)" stroke="var(--stroke-0, #AFBBCC)" stroke-width="0.118519"/>
<path id="path2225" opacity="0" fill-rule="evenodd" clip-rule="evenodd" d="M34.614 12.9797C34.3995 12.8884 34.2477 12.6405 34.2477 12.3814C34.2477 12.1573 37.4432 1.79366 37.615 1.46062C37.6901 1.31498 37.8912 1.15169 38.1209 1.04982C38.4841 0.888765 38.6518 0.882411 41.6585 0.915779C44.1484 0.943411 44.9045 0.977896 45.2396 1.07911C46.6208 1.49624 47.3623 2.17064 47.5264 3.15895C47.5982 3.59186 47.4491 4.45709 47.2174 4.95125C46.9512 5.51904 46.3493 6.0555 45.5317 6.45365L44.8057 6.80722L45.2918 7.27522C45.8939 7.85476 46.0959 8.41911 46.0021 9.25926C45.8273 10.8255 45.127 11.8583 43.8339 12.4573C42.7588 12.9553 42.3734 12.9959 38.4066 13.0288C36.3052 13.0462 34.722 13.0257 34.614 12.9797ZM42.1836 10.5437C42.6622 10.2932 42.9019 9.8392 42.9037 9.17995C42.9048 8.77967 42.8642 8.60749 42.7279 8.43371C42.36 7.96488 42.1571 7.91837 40.3376 7.88562C39.4156 7.86903 38.6613 7.87353 38.6613 7.89561C38.6613 7.91769 38.4703 8.55749 38.2369 9.31738C38.0035 10.0773 37.8125 10.7161 37.8125 10.737C37.8125 10.7579 38.7196 10.763 39.8283 10.7482C41.6778 10.7236 41.8722 10.7067 42.1836 10.5437ZM43.6031 5.51538C44.2318 5.22421 44.5597 4.47201 44.3438 3.81616C44.1718 3.29393 43.9459 3.23699 41.924 3.20627L40.1365 3.17912L39.8539 4.09972C39.6984 4.60605 39.5203 5.18564 39.4581 5.38769L39.345 5.75505L41.2736 5.72805C43.0443 5.70326 43.235 5.68584 43.6031 5.51538Z" fill="var(--fill-0, #AFBBCC)" stroke="var(--stroke-0, #AFBBCC)" stroke-width="0.118519"/>
<path id="path2301" opacity="0" fill-rule="evenodd" clip-rule="evenodd" d="M34.614 12.9797C34.3995 12.8884 34.2477 12.6405 34.2477 12.3814C34.2477 12.1573 37.4432 1.79366 37.615 1.46062C37.6901 1.31498 37.8912 1.15169 38.1209 1.04982C38.4841 0.888765 38.6518 0.882411 41.6585 0.915779C44.1484 0.943411 44.9045 0.977896 45.2396 1.07911C46.6208 1.49624 47.3623 2.17064 47.5264 3.15895C47.5982 3.59186 47.4491 4.45709 47.2174 4.95125C46.9512 5.51904 46.3493 6.0555 45.5317 6.45365L44.8057 6.80722L45.2918 7.27522C45.8939 7.85476 46.0959 8.41911 46.0021 9.25926C45.8273 10.8255 45.127 11.8583 43.8339 12.4573C42.7588 12.9553 42.3734 12.9959 38.4066 13.0288C36.3052 13.0462 34.722 13.0257 34.614 12.9797ZM42.1836 10.5437C42.6622 10.2932 42.9019 9.8392 42.9037 9.17995C42.9048 8.77967 42.8642 8.60749 42.7279 8.43371C42.36 7.96488 42.1571 7.91837 40.3376 7.88562C39.4156 7.86903 38.6613 7.87353 38.6613 7.89561C38.6613 7.91769 38.4703 8.55749 38.2369 9.31738C38.0035 10.0773 37.8125 10.7161 37.8125 10.737C37.8125 10.7579 38.7196 10.763 39.8283 10.7482C41.6778 10.7236 41.8722 10.7067 42.1836 10.5437ZM43.6031 5.51538C44.2318 5.22421 44.5597 4.47201 44.3438 3.81616C44.1718 3.29393 43.9459 3.23699 41.924 3.20627L40.1365 3.17912L39.8539 4.09972C39.6984 4.60605 39.5203 5.18564 39.4581 5.38769L39.345 5.75505L41.2736 5.72805C43.0443 5.70326 43.235 5.68584 43.6031 5.51538Z" fill="var(--fill-0, #AFBBCC)" stroke="var(--stroke-0, #AFBBCC)" stroke-width="0.118519"/>
<path id="path2340" opacity="0" fill-rule="evenodd" clip-rule="evenodd" d="M34.614 12.9797C34.3995 12.8884 34.2477 12.6405 34.2477 12.3814C34.2477 12.1573 37.4432 1.79366 37.615 1.46062C37.6901 1.31498 37.8912 1.15169 38.1209 1.04982C38.4841 0.888765 38.6518 0.882411 41.6585 0.915779C44.1484 0.943411 44.9045 0.977896 45.2396 1.07911C46.6208 1.49624 47.3623 2.17064 47.5264 3.15895C47.5982 3.59186 47.4491 4.45709 47.2174 4.95125C46.9512 5.51904 46.3493 6.0555 45.5317 6.45365L44.8057 6.80722L45.2918 7.27522C45.8939 7.85476 46.0959 8.41911 46.0021 9.25926C45.8273 10.8255 45.127 11.8583 43.8339 12.4573C42.7588 12.9553 42.3734 12.9959 38.4066 13.0288C36.3052 13.0462 34.722 13.0257 34.614 12.9797ZM42.1836 10.5437C42.6622 10.2932 42.9019 9.8392 42.9037 9.17995C42.9048 8.77967 42.8642 8.60749 42.7279 8.43371C42.36 7.96488 42.1571 7.91837 40.3376 7.88562C39.4156 7.86903 38.6613 7.87353 38.6613 7.89561C38.6613 7.91769 38.4703 8.55749 38.2369 9.31738C38.0035 10.0773 37.8125 10.7161 37.8125 10.737C37.8125 10.7579 38.7196 10.763 39.8283 10.7482C41.6778 10.7236 41.8722 10.7067 42.1836 10.5437ZM43.6031 5.51538C44.2318 5.22421 44.5597 4.47201 44.3438 3.81616C44.1718 3.29393 43.9459 3.23699 41.924 3.20627L40.1365 3.17912L39.8539 4.09972C39.6984 4.60605 39.5203 5.18564 39.4581 5.38769L39.345 5.75505L41.2736 5.72805C43.0443 5.70326 43.235 5.68584 43.6031 5.51538Z" fill="var(--fill-0, #AFBBCC)" stroke="var(--stroke-0, #AFBBCC)" stroke-width="0.118519"/>
<path id="path2379" opacity="0" fill-rule="evenodd" clip-rule="evenodd" d="M34.614 12.9797C34.3995 12.8884 34.2477 12.6405 34.2477 12.3814C34.2477 12.1573 37.4432 1.79366 37.615 1.46062C37.6901 1.31498 37.8912 1.15169 38.1209 1.04982C38.4841 0.888765 38.6518 0.882411 41.6585 0.915779C44.1484 0.943411 44.9045 0.977896 45.2396 1.07911C46.6208 1.49624 47.3623 2.17064 47.5264 3.15895C47.5982 3.59186 47.4491 4.45709 47.2174 4.95125C46.9512 5.51904 46.3493 6.0555 45.5317 6.45365L44.8057 6.80722L45.2918 7.27522C45.8939 7.85476 46.0959 8.41911 46.0021 9.25926C45.8273 10.8255 45.127 11.8583 43.8339 12.4573C42.7588 12.9553 42.3734 12.9959 38.4066 13.0288C36.3052 13.0462 34.722 13.0257 34.614 12.9797ZM42.1836 10.5437C42.6622 10.2932 42.9019 9.8392 42.9037 9.17995C42.9048 8.77967 42.8642 8.60749 42.7279 8.43371C42.36 7.96488 42.1571 7.91837 40.3376 7.88562C39.4156 7.86903 38.6613 7.87353 38.6613 7.89561C38.6613 7.91769 38.4703 8.55749 38.2369 9.31738C38.0035 10.0773 37.8125 10.7161 37.8125 10.737C37.8125 10.7579 38.7196 10.763 39.8283 10.7482C41.6778 10.7236 41.8722 10.7067 42.1836 10.5437ZM43.6031 5.51538C44.2318 5.22421 44.5597 4.47201 44.3438 3.81616C44.1718 3.29393 43.9459 3.23699 41.924 3.20627L40.1365 3.17912L39.8539 4.09972C39.6984 4.60605 39.5203 5.18564 39.4581 5.38769L39.345 5.75505L41.2736 5.72805C43.0443 5.70326 43.235 5.68584 43.6031 5.51538Z" fill="var(--fill-0, #AFBBCC)" stroke="var(--stroke-0, #AFBBCC)" stroke-width="0.118519"/>
</g>
<defs>
<clipPath id="clip0_0_20">
<rect width="110" height="14" fill="white"/>
</clipPath>
</defs>
</svg>
