<svg preserveAspectRatio="none" width="100%" height="100%" overflow="visible" style="display: block;" viewBox="0 0 95.0005 15.9546" fill="none" xmlns="http://www.w3.org/2000/svg">
<g id="Group">
<path id="Vector" d="M0 15.9546H4.30069L12.3156 6.42718L7.56554 2.62962e-09H2.69457L8.01493 6.42718L0 15.9546Z" fill="var(--fill-0, #AFBBCC)"/>
<path id="Vector_2" d="M23.751 4.71578e-07L19.4503 0L11.419 9.52742L16.2891 15.9546H21.2637L15.7197 9.52742L23.751 4.71578e-07Z" fill="var(--fill-0, #AFBBCC)"/>
<path id="Vector_3" d="M27.5975 1.91808H34.2176C39.034 1.91808 40.2215 4.64866 40.2215 8.12704C40.2215 10.755 39.0233 14.0967 34.8339 14.0967H27.5975V1.91808ZM30.178 12.1866H33.8068C35.664 12.1866 37.6411 11.5926 37.6411 8.0309C37.6411 4.07391 35.1142 3.83675 33.6678 3.83675H30.1759V12.1866H30.178Z" fill="var(--fill-0, #AFBBCC)"/>
<path id="Vector_4" d="M51.3581 11.6473C51.3477 11.7157 51.3544 11.7862 51.3775 11.8524C51.3988 11.9186 51.4371 11.9785 51.4867 12.0276C51.5358 12.0767 51.5954 12.1131 51.662 12.1366C51.7287 12.1579 51.7986 12.1644 51.8676 12.1558C52.1243 12.1558 52.379 12.1387 52.6314 12.1045V13.7412C52.0855 13.8693 51.5273 13.9356 50.9663 13.9377C49.4369 13.9377 49.2677 13.1279 49.193 12.7904C48.7326 13.2284 47.5945 14.021 44.9606 14.021C42.6177 14.021 41.2911 12.9741 41.2911 11.2221C41.2911 8.75862 43.8394 8.53852 45.335 8.40394C48.6986 8.08347 49.0559 7.96591 49.0559 7.27579C49.0559 6.24596 47.8729 5.9917 46.5076 5.9917C44.9606 5.9917 44.1283 6.48097 44.0449 7.47664H41.7597C42.0977 5.12855 43.848 4.40636 46.5183 4.40636C51.2253 4.40636 51.3605 6.24596 51.3605 7.41043V11.6494L51.3581 11.6473ZM49.011 9.23721C48.3304 9.52351 47.5988 9.60685 45.9363 9.79274C44.1625 9.9893 43.7453 10.3803 43.7453 11.1431C43.7453 12.3161 44.8301 12.5425 45.6325 12.5425C46.8885 12.5425 49.0129 12.0703 49.0129 10.0961V9.23721H49.011Z" fill="var(--fill-0, #AFBBCC)"/>
<path id="Vector_5" d="M55.6714 10.8824C55.7423 12.2306 57.3426 12.4314 58.2137 12.4314C59.4246 12.4314 60.7192 12.1281 60.7192 11.2862C60.7192 10.5961 60.3146 10.3589 57.7236 10.0235C54.8717 9.6517 53.3716 9.33123 53.3716 7.28648C53.3716 4.7461 56.4357 4.40636 57.9864 4.40636C59.4137 4.40636 62.8437 4.60079 62.9826 7.47241H60.4748C60.2848 6.1413 58.6845 5.98958 57.8649 5.98958C56.5084 5.98958 55.7763 6.54723 55.7763 7.0173C55.7763 7.74158 56.0037 7.85914 58.3163 8.19029C61.3459 8.61335 63.3295 8.89749 63.3295 10.9722C63.3295 13.2455 61.085 14.021 58.2284 14.021C56.2622 14.021 53.1471 13.6173 53.0591 10.8931L55.6695 10.8824H55.6714Z" fill="var(--fill-0, #AFBBCC)"/>
<path id="Vector_6" d="M64.8269 1.89292H67.2529V6.43019H67.2874C68.0743 5.45805 69.3008 4.82563 70.9437 4.82563C72.9382 4.82563 74.8831 5.52431 74.8831 7.96643V14.1049H72.4632V8.72492C72.4632 7.75278 72.1291 6.64384 70.1331 6.64384C68.8726 6.64384 67.2449 7.32544 67.2449 9.2548V14.1113H64.8269V1.89292Z" fill="var(--fill-0, #AFBBCC)"/>
<path id="Vector_7" d="M76.3805 1.93268H78.5778V12.2695H83.8694V14.1113H76.3805V1.93268Z" fill="var(--fill-0, #AFBBCC)"/>
<path id="Vector_8" d="M84.161 1.93268H86.6963L89.4607 6.23151L92.3391 1.93268H94.7221L90.6934 7.80191L95.0005 14.1113H92.4137L89.3818 9.45565L86.3026 14.1113H83.8746L88.1813 7.80191L84.1653 1.93268H84.161Z" fill="var(--fill-0, #AFBBCC)"/>
</g>
</svg>
