<svg preserveAspectRatio="none" width="100%" height="100%" overflow="visible" style="display: block;" viewBox="0 0 40 40" fill="none" xmlns="http://www.w3.org/2000/svg">
<g id="GE 1" clip-path="url(#clip0_0_18)">
<path id="Vector" d="M24.4865 14.7927C24.4865 12.5184 26.0261 10.3127 26.8661 10.7282C27.8237 11.2082 26.1486 13.3502 24.4865 14.7927ZM14.0171 15.6212C14.0171 13.7927 15.8212 10.3184 16.9233 10.6857C18.2261 11.12 15.8441 14.6245 14.0171 15.6212ZM12.1878 28.6988C11.3584 28.7363 10.8033 28.2057 10.8033 27.32C10.8033 24.9404 14.1053 22.6669 16.5992 21.4465C16.1567 24.769 15.0343 28.5706 12.1878 28.6988ZM27.422 20.9445C25.5388 20.9445 24.0996 22.3298 24.0996 23.991C24.0996 25.3763 24.9322 26.4841 26.0367 26.4841C26.4278 26.4841 26.8147 26.2612 26.8147 25.7665C26.8147 25.0424 25.8596 24.8686 25.9314 23.7918C25.9796 23.0816 26.649 22.6065 27.3135 22.6065C28.6416 22.6065 29.2629 23.8939 29.2629 25.222C29.209 27.2735 27.6988 28.698 25.929 28.698C23.6008 28.698 22.1053 26.4841 22.1053 24.1012C22.1053 20.5535 24.4335 19.169 25.6531 18.8384C25.6645 18.8384 28.8384 19.4024 28.7396 18.0033C28.6939 17.3878 27.7788 17.151 27.1176 17.1257C26.382 17.0971 25.6392 17.3616 25.6392 17.3616C25.2539 17.1657 24.9861 16.7829 24.8204 16.342C27.0922 14.6229 28.6988 12.9624 28.6988 11.0784C28.6988 10.0816 28.0327 9.1951 26.7584 9.1951C24.4865 9.1951 22.769 12.0759 22.769 14.68C22.769 15.1216 22.769 15.5665 22.8833 15.9535C21.4416 17.0049 20.3698 17.6604 18.4327 18.8237C18.4327 18.5812 18.4833 17.9551 18.6465 17.1453C19.3102 16.4245 20.222 15.3445 20.222 14.5127C20.222 14.1257 20.0024 13.7918 19.5551 13.7918C18.449 13.7918 17.6196 15.4555 17.3976 16.6188C16.8988 17.231 15.9012 18.0065 15.0686 18.0065C14.4049 18.0065 14.182 17.3967 14.1257 17.1739C16.2318 16.4531 18.8359 13.5722 18.8359 10.9682C18.8359 10.4155 18.6139 9.1951 16.9527 9.1951C14.4596 9.1951 12.3567 12.9086 12.3567 15.7861C11.4678 15.7861 11.1371 14.8457 11.1371 14.1249C11.1371 13.4033 11.4139 12.6857 11.4139 12.4629C11.4139 12.2408 11.3029 11.9649 10.969 11.9649C10.1396 11.9649 9.64082 13.0727 9.64082 14.3469C9.69796 16.12 10.8604 17.231 12.4106 17.3396C12.6327 18.3935 13.5731 19.391 14.7355 19.391C15.4571 19.391 16.3429 19.169 16.9527 18.6163C16.8988 19.0033 16.8449 19.3371 16.7878 19.6678C14.3486 20.9445 12.5755 21.8302 10.969 23.2702C9.69796 24.4351 8.97714 25.9853 8.97714 27.2024C8.97714 28.8669 10.0286 30.4171 12.1886 30.4171C14.7355 30.4171 16.6767 28.3682 17.6196 25.5412C18.0612 24.2131 18.2384 22.2784 18.3518 20.5029C20.8971 19.0604 22.1053 18.2294 23.4359 17.2857C23.6016 17.5624 23.769 17.7837 23.9886 17.9494C22.8261 18.5592 20.0563 20.2776 20.0563 24.3208C20.0563 27.2016 21.9935 30.4163 25.8188 30.4163C28.9763 30.4163 31.1363 27.8114 31.1363 25.3176C31.1355 23.0482 29.8612 20.9445 27.422 20.9445ZM36.9478 25.7037C36.9396 25.7208 36.9086 25.7437 36.8457 25.7233C36.7967 25.7061 36.7861 25.6833 36.7861 25.6514C36.7886 25.6204 37.4555 23.6482 37.4498 21.3886C37.4441 18.9461 36.4531 17.4498 35.182 17.4498C34.4041 17.4498 33.8506 18.0057 33.8506 18.8384C33.8506 20.3339 35.6775 20.4457 35.6775 23.7135C35.6775 25.0416 35.4008 26.3159 34.96 27.7004C32.9078 34.6245 26.3706 37.8392 20.0024 37.8392C17.0645 37.8392 14.978 37.2351 14.3576 36.9567C14.3322 36.942 14.3086 36.8939 14.329 36.8449C14.3429 36.8082 14.3861 36.7796 14.4114 36.791C14.6629 36.8882 16.4547 37.4522 18.6718 37.4522C21.1086 37.4522 22.5502 36.4555 22.5502 35.2351C22.5502 34.4604 21.9404 33.8506 21.1657 33.8506C19.6694 33.8506 19.5559 35.7339 16.3437 35.7339C14.9592 35.7339 13.7396 35.4571 12.3004 35.0122C5.42857 32.9078 2.15755 26.4278 2.16 20.0016C2.16245 16.8702 3.04082 14.3763 3.05469 14.3535C3.06612 14.3371 3.10531 14.3192 3.15347 14.3371C3.20245 14.3535 3.21306 14.3935 3.21061 14.4082C3.13143 14.6678 2.54939 16.4547 2.54939 18.6718C2.54939 21.111 3.54612 22.5502 4.82041 22.5502C5.53878 22.5502 6.14857 21.9976 6.14857 21.222C6.14857 19.7241 4.31918 19.5584 4.31918 16.3445C4.31918 14.9592 4.59837 13.7396 5.04 12.3004C7.14612 5.4302 13.6294 2.21061 20.0008 2.16082C22.9616 2.13796 25.5518 3.02449 25.6514 3.10367C25.6686 3.11837 25.6857 3.15592 25.6686 3.20082C25.6449 3.25469 25.6106 3.26041 25.5943 3.25714C25.5633 3.25469 23.8784 2.5502 21.3282 2.5502C18.9461 2.54776 17.4498 3.54531 17.4498 4.82122C17.4498 5.53959 18.0057 6.14939 18.8343 6.14939C20.3306 6.14939 20.4416 4.32245 23.6563 4.32245C25.0376 4.32245 26.258 4.59592 27.6971 5.04082C34.6245 7.14612 37.7763 13.6833 37.8359 20.0008C37.8686 23.2359 36.9567 25.6833 36.9478 25.7037ZM20.0016 0.942857C9.4751 0.942857 0.943673 9.47184 0.943673 20.0008C0.943673 30.5273 9.4751 39.0563 20.0016 39.0563C30.5257 39.0563 39.0571 30.5273 39.0571 20.0008C39.0571 9.52898 30.5257 0.942857 20.0016 0.942857ZM20.0016 40C8.97633 40 0 31.0808 0 20.0016C0 8.97306 8.97633 0 20.0016 0C31.0237 0 40 8.97306 40 20.0016C40 31.0808 31.0237 40 20.0016 40Z" fill="var(--fill-0, #AFBBCC)"/>
</g>
<defs>
<clipPath id="clip0_0_18">
<rect width="40" height="40" fill="white"/>
</clipPath>
</defs>
</svg>
