<svg preserveAspectRatio="none" width="100%" height="100%" overflow="visible" style="display: block;" viewBox="0 0 78 32" fill="none" xmlns="http://www.w3.org/2000/svg">
<g id="Pfizer_(2021) 1" clip-path="url(#clip0_0_30)">
<path id="path4664" d="M1.51992 12.8044C2.44025 9.43283 6.27337 8.63043 9.80249 8.5313C12.7037 8.44982 15.9384 8.8342 15.9384 8.8342L14.4185 14.4023C14.4185 14.4023 11.1838 14.018 8.28257 14.0994C4.75348 14.1986 0.920338 15.001 0 18.3725L1.51992 12.8044Z" fill="var(--fill-0, #AFBBCC)"/>
<path id="path4655" d="M50.355 6.87627C45.709 6.8763 44.5187 11.3818 43.8526 13.822L38.8897 32H41.7852L46.1853 15.8817H49.1926L47.1906 23.2161H50.0861L52.487 14.4204H46.5845C46.8869 13.3118 47.2094 12.1307 47.4723 11.1677C47.9578 9.38923 48.7508 8.09769 49.904 8.14112C51.1786 8.18913 50.53 9.02777 50.3554 9.66717C50.114 10.5518 50.7659 11.4413 51.9081 11.4413C54.3892 11.4413 55.001 6.87627 50.355 6.87627ZM33.9302 10.057V10.0572L30.3382 23.2161H33.3568L34.6869 18.3432H37.3089C40.202 18.3432 42.122 16.7432 42.6412 14.5191C43.126 12.4426 41.9155 10.057 38.6736 10.057C37.0924 10.0571 35.5115 10.057 33.9302 10.057ZM36.5261 11.6055H37.6867C38.9018 11.6055 39.8658 12.5801 39.633 14.2763C39.4172 15.8486 37.7133 16.791 36.2277 16.791H35.1105L36.5261 11.6055ZM65.1503 14.154C62.6123 14.154 60.7814 16.3418 60.342 18.5283C59.9198 20.6294 61.1223 23.4215 64.4329 23.4215C66.7859 23.4215 67.9693 22.3834 67.9693 22.3834L67.4277 21.0439C67.4277 21.0439 66.4385 21.8506 65.0601 21.8506C63.6818 21.8506 62.8171 20.7604 63.0084 19.0231H68.637C69.0394 18 69.2597 14.154 65.1503 14.154ZM76.3698 14.2723C74.4821 14.2723 73.3691 16.2256 73.3691 16.2256L73.8618 14.4205H70.9663L68.5654 23.2161H71.4609C71.4609 23.2161 72.1581 20.6463 72.5129 19.3633C73.0607 17.3579 74.1779 16.1021 74.7151 16.0507C75.3358 15.9913 75.2764 17.49 76.487 17.49C78.3234 17.49 78.7196 14.2723 76.3701 14.2723H76.3698ZM53.578 14.4205L53.179 15.882H56.8491L51.0794 23.2161H59.227L59.6259 21.7546H55.4858L61.2553 14.4205H53.578ZM65.1395 15.6063V15.6065C66.7137 15.6065 66.3555 17.6892 66.3555 17.6892L63.2018 17.6819C63.2018 17.6819 63.7249 15.6063 65.1395 15.6063Z" fill="var(--fill-0, #AFBBCC)"/>
<path id="path4668" d="M23.5437 23.2365C13.1604 22.5878 1.09399 17.2212 1.51992 12.8044L0.0873289 18.0527C-0.347225 22.559 10.846 27.9092 22.0238 28.8047L23.5437 23.2365Z" fill="var(--fill-0, #AFBBCC)"/>
<path id="path4672" d="M27.3171 16.0003C26.3968 19.3719 22.5636 20.1743 19.0345 20.2734C16.1334 20.3549 12.8986 19.9705 12.8986 19.9705L14.4185 14.4023C14.4185 14.4023 17.6533 14.7867 20.5545 14.7052C24.0835 14.6061 27.9167 13.8037 28.837 10.4322L27.3171 16.0003Z" fill="var(--fill-0, #AFBBCC)"/>
<path id="path4674" d="M5.2933 5.56815C15.6767 6.21693 27.743 11.5835 27.3171 16.0003L28.7497 10.752C29.1842 6.24569 17.991 0.895512 6.8132 0L5.2933 5.56815Z" fill="var(--fill-0, #AFBBCC)"/>
</g>
<defs>
<clipPath id="clip0_0_30">
<rect width="78" height="32" fill="white"/>
</clipPath>
</defs>
</svg>
