<svg preserveAspectRatio="none" width="100%" height="100%" overflow="visible" style="display: block;" viewBox="0 0 69 32" fill="none" xmlns="http://www.w3.org/2000/svg">
<g id="TNF 1" clip-path="url(#clip0_0_16)">
<path id="Vector" fill-rule="evenodd" clip-rule="evenodd" d="M44.6774 1.79729V0H37.5335V9.86814H44.6774V8.24041H39.5214V5.56143H44.0367V3.79805H39.5214V1.79729H44.6774ZM42.6895 10.8855V14.6836H38.7801V10.8855H36.7595V20.7202H38.7801V16.3113H42.6895V20.7202H44.6774V10.8855H42.6895ZM44.6774 23.4999V21.7375H37.5335V31.7404H44.6774V29.9441H39.5214V27.2985H44.0367V25.6713H39.5214V23.4999H44.6774ZM36.3884 0H34.4006V3.79805H30.4921V0H28.5042V9.86814H30.4921V5.4597H34.4006V9.86814H36.3884V0ZM19.9462 0V1.79729H22.9786V9.86814H24.9665V1.79729H27.9989V0H19.9462ZM13.6794 10.6142C10.5459 10.6142 8.89495 12.4115 8.89495 15.8026C8.89495 19.3633 10.5459 21.1267 13.6794 21.1267C16.8128 21.1267 18.4301 19.3633 18.4301 15.8026C18.4301 12.4115 16.8128 10.6142 13.6794 10.6142ZM11.0513 15.8026C11.0513 13.5306 11.9273 12.4115 13.6794 12.4115C15.5662 12.4115 16.4422 13.5306 16.4422 15.8026C16.4422 18.2107 15.5662 19.3633 13.6794 19.3633C11.9273 19.3633 11.0513 18.2107 11.0513 15.8026ZM6.03104 10.8855V17.8373L2.12265 10.8855H0V20.7202H1.88681V13.8019L5.89626 20.7202H8.01893V10.8855H6.03104ZM15.2966 25.8064V23.4999H20.3169V21.7375H13.3088V31.7404H15.2966V27.5698H19.7104V25.8064H15.2966ZM36.0182 12.6489V10.8855H27.9989V12.6489H30.9976V20.7202H33.0191V12.6489H36.0182ZM23.585 16.956C24.2252 16.956 24.7306 17.0574 24.9665 17.3286L25.3371 20.7202H27.5946V20.4828C27.3587 20.3467 27.2239 19.7367 27.2239 18.5833C27.2239 17.1934 26.7186 16.4469 25.9773 16.0739C26.988 15.667 27.4935 14.9209 27.4935 13.6662C27.4935 11.9029 26.4827 10.8855 24.36 10.8855H19.4409V20.7202H21.4624V16.956H23.585ZM21.4624 15.294V12.6489H23.9557C24.9665 12.6489 25.4719 13.0218 25.4719 13.9035C25.4719 14.7852 24.9665 15.294 23.8546 15.294H21.4624ZM24.9665 21.7375H22.5743L19.0703 31.7404H21.1929L21.9678 29.5705H25.6067L26.2131 31.7404H28.3695L24.9665 21.7375ZM23.7199 24.0086L24.9665 27.9433H22.4733L23.7199 24.0086ZM34.7716 25.0259H36.7595C36.6579 24.1448 36.3884 23.3987 35.7815 22.7539C34.9059 22.0078 33.8951 21.4992 32.5138 21.4992C31.1323 21.4992 30.1215 22.0078 29.2455 22.89C28.5042 23.7712 27.9989 25.0259 27.9989 26.6881C27.9989 30.2148 29.4814 31.9773 32.3789 31.9773C34.9059 31.9773 36.2869 30.7226 36.7595 28.3153H34.7716C34.502 29.4678 33.6255 30.0788 32.5138 30.0788C30.8627 30.0788 30.1215 28.9601 30.1215 26.7893C30.1215 24.416 30.8627 23.2625 32.5138 23.2625C33.6255 23.2625 34.2662 23.9074 34.7716 25.0259ZM9.80465 31.6052C10.1416 31.6052 10.4111 31.469 10.6138 31.3C10.7822 31.0965 10.9165 30.8252 10.9165 30.4527C10.9165 30.0453 10.7817 29.774 10.6138 29.6044C10.4116 29.4353 10.1421 29.3331 9.80465 29.3331H9.77096C9.36665 29.3331 9.0971 29.4353 8.92863 29.6044C8.76064 29.7735 8.65909 30.0453 8.65909 30.4527V30.4857C8.65909 30.8252 8.76017 31.0965 8.92863 31.3C9.0971 31.469 9.36711 31.6052 9.77096 31.6052H9.80465ZM9.77096 31.8764C9.29926 31.8764 8.96233 31.7074 8.72648 31.4691C8.49063 31.2317 8.38954 30.8931 8.38954 30.4857V30.4527C8.38954 29.977 8.49063 29.6384 8.72648 29.4014C8.96233 29.164 9.29926 29.0619 9.77096 29.0619H9.80465C10.209 29.0619 10.5459 29.164 10.7817 29.4014C11.0176 29.6388 11.1861 29.9774 11.1861 30.4527C11.1861 30.8935 11.0176 31.2317 10.7817 31.4691C10.6539 31.5989 10.5017 31.7018 10.3339 31.7717C10.1662 31.8417 9.98624 31.8773 9.80465 31.8764H9.77096ZM9.90573 30.3166H9.93943C10.0742 30.3166 10.1416 30.2483 10.1416 30.0792V30.0453C10.1416 30.0453 10.1079 30.0453 10.1079 30.0113C10.0742 29.9774 10.0068 29.9774 9.90573 29.9774H9.53511V30.3171L9.90573 30.3166ZM10.1416 30.554L10.4111 30.8935C10.4448 30.9609 10.4111 31.0287 10.3774 31.0626C10.31 31.1309 10.209 31.0965 10.1753 31.0626L9.83835 30.5878H9.53511V30.9605C9.53511 31.0287 9.46772 31.0965 9.40034 31.0965C9.33295 31.0965 9.26556 31.0282 9.26556 30.9605V29.8418C9.26556 29.7735 9.33295 29.7067 9.40034 29.7067H9.93943C10.0742 29.7067 10.209 29.7396 10.2764 29.8079C10.31 29.8418 10.3437 29.8418 10.3437 29.8762C10.4111 29.9445 10.4111 30.0113 10.4111 30.0797C10.4111 30.3505 10.3437 30.4857 10.1416 30.554ZM46.0583 0C52.3257 0 57.7497 2.30595 62.1299 6.71441C66.6446 11.2585 68.9026 16.6843 68.9026 23.0252V31.7404H59.7381V22.7539C59.7381 19.2281 58.4915 16.1757 55.9645 13.6662C55.3575 13.0218 54.7179 12.5132 53.9766 12.0045C51.9551 10.6142 49.5629 10.0038 47.0695 10.0038H46.0587V0H46.0583ZM58.8612 31.7404H51.7182V24.7885C51.7182 23.6361 51.3481 22.7539 50.5732 22.0078C49.8319 21.2288 48.8211 20.8554 47.8103 20.8554H46.0583V10.8855H47.069C49.6967 10.8855 51.9541 11.6315 53.9762 13.1576C54.4815 13.395 54.9869 13.9035 55.3571 14.2765C57.7497 16.6847 58.8612 19.4654 58.8612 22.7544V31.7404ZM50.8427 31.7404H46.0578V21.7375H47.8103C48.5852 21.7375 49.3265 22.0078 49.9663 22.6188C50.4716 23.1274 50.8427 23.9074 50.8427 24.7885V31.7404Z" fill="var(--fill-0, #AFBBCC)"/>
</g>
<defs>
<clipPath id="clip0_0_16">
<rect width="69" height="32" fill="white"/>
</clipPath>
</defs>
</svg>
